<svg width="154" height="43" viewBox="0 0 154 43" fill="none" xmlns="http://www.w3.org/2000/svg">
<path fill-rule="evenodd" clip-rule="evenodd" d="M21.26 0C17.0552 0 12.9448 1.24688 9.44859 3.58296C5.9524 5.91903 3.22745 9.23939 1.61833 13.1242C0.00921166 17.0089 -0.411807 21.2836 0.408514 25.4076C1.22884 29.5317 3.25365 33.3198 6.22692 36.2931C9.20018 39.2664 12.9884 41.2912 17.1124 42.1115C21.2364 42.9318 25.5111 42.5108 29.3959 40.9017C33.2806 39.2926 36.601 36.5676 38.9371 33.0714C41.2731 29.5752 42.52 25.4648 42.52 21.26C42.52 15.6215 40.2801 10.2139 36.2931 6.22691C32.3061 2.23989 26.8985 0 21.26 0" fill="#FEFEFE"/>
<path fill-rule="evenodd" clip-rule="evenodd" d="M21.2601 0C25.0533 0.00692385 28.7756 1.0281 32.0413 2.95771C35.3071 4.88731 37.9974 7.65514 39.8334 10.9744C41.6695 14.2936 42.5846 18.0434 42.4837 21.8353C42.3829 25.6271 41.2699 29.323 39.2601 32.54L38.4401 32.4C35.7467 31.9209 33.0294 31.5871 30.3001 31.4V31.4C28.7408 31.4914 27.1901 31.6953 25.6601 32.01C24.1735 32.3183 22.666 32.5155 21.1501 32.6C19.7041 32.51 18.2668 32.3128 16.8501 32.01C15.3908 31.6959 13.91 31.4919 12.4201 31.4H12.3501C9.49765 31.5817 6.65694 31.9155 3.84009 32.4L3.22009 32.5C1.21542 29.2815 0.107994 25.5855 0.0125914 21.7949C-0.0828114 18.0044 0.83728 14.2573 2.6775 10.942C4.51772 7.62678 7.2111 4.864 10.4785 2.94006C13.7459 1.01612 17.4683 0.00102991 21.2601 0V0Z" fill="#00588C"/>
<path d="M37.3303 35.17C35.0421 34.7862 32.7357 34.5192 30.4203 34.37V34.37C28.9342 34.4775 27.4573 34.688 26.0003 35C24.4508 35.3188 22.8799 35.5227 21.3003 35.61V35.61C19.7667 35.5258 18.2421 35.3218 16.7403 35C15.3423 34.7058 13.9256 34.5087 12.5003 34.41H12.4403C11.0703 34.41 7.82031 34.84 5.19031 35.22C4.89031 34.88 4.60031 34.52 4.32031 34.15C7.01114 33.6886 9.7252 33.3748 12.4503 33.21H12.5103C14.0031 33.3061 15.4869 33.51 16.9503 33.82C18.367 34.1234 19.8043 34.3206 21.2503 34.41C22.7667 34.3305 24.2745 34.1332 25.7603 33.82C27.2903 33.5052 28.841 33.3014 30.4003 33.21V33.21C33.0116 33.3768 35.612 33.6839 38.1903 34.13C37.9303 34.46 37.6403 34.82 37.3303 35.17Z" fill="#00588C"/>
<path d="M34.6392 37.78C33.2405 37.5714 31.832 37.4345 30.4192 37.37C28.933 37.4769 27.4561 37.6874 25.9992 38C24.4497 38.3189 22.8788 38.5228 21.2992 38.61V38.61C19.7656 38.5258 18.241 38.3219 16.7392 38C15.3411 37.7084 13.9243 37.5146 12.4992 37.42H12.4392C10.9229 37.4862 9.41092 37.6297 7.90922 37.85C7.48922 37.52 7.08922 37.17 6.69922 36.85C8.60379 36.5513 10.5234 36.3577 12.4492 36.27H12.5092C14.0025 36.3612 15.4867 36.5651 16.9492 36.88C18.3676 37.1736 19.8042 37.3707 21.2492 37.47C22.7651 37.3855 24.2726 37.1883 25.7592 36.88C27.2875 36.5554 28.839 36.3514 30.3992 36.27C32.2148 36.357 34.0242 36.5439 35.8192 36.83C35.4259 37.2034 35.0259 37.5534 34.6192 37.88L34.6392 37.78Z" fill="#00588C"/>
<path d="M30.6008 40.3602H30.4008C28.9206 40.467 27.4501 40.6809 26.0008 41.0002C24.4513 41.3191 22.8803 41.523 21.3008 41.6102V41.6102C19.7677 41.521 18.2434 41.3171 16.7408 41.0002C15.3436 40.701 13.9266 40.5038 12.5008 40.4102H11.9408C11.2927 40.1122 10.6618 39.7783 10.0508 39.4102C11.0508 39.3102 11.8508 39.2402 12.4508 39.2402H12.5108C14.004 39.3314 15.4883 39.5353 16.9508 39.8502C18.3674 40.1536 19.8048 40.3508 21.2508 40.4402C22.7667 40.3558 24.2742 40.1585 25.7608 39.8502C27.2908 39.5355 28.8414 39.3316 30.4008 39.2402V39.2402C30.9208 39.2402 31.6508 39.3002 32.4808 39.3802C31.8723 39.7406 31.2447 40.0677 30.6008 40.3602V40.3602Z" fill="#00588C"/>
<path d="M37.3303 35.17C35.0421 34.7862 32.7357 34.5192 30.4203 34.37V34.37C28.9342 34.4775 27.4573 34.688 26.0003 35C24.4508 35.3188 22.8799 35.5227 21.3003 35.61V35.61C19.7667 35.5258 18.2421 35.3218 16.7403 35C15.3423 34.7058 13.9256 34.5087 12.5003 34.41H12.4403C11.0703 34.41 7.82031 34.84 5.19031 35.22C4.89031 34.88 4.60031 34.52 4.32031 34.15C7.01114 33.6886 9.7252 33.3748 12.4503 33.21H12.5103C14.0031 33.3061 15.4869 33.51 16.9503 33.82C18.367 34.1234 19.8043 34.3206 21.2503 34.41C22.7667 34.3305 24.2745 34.1332 25.7603 33.82C27.2903 33.5052 28.841 33.3014 30.4003 33.21V33.21C33.0116 33.3768 35.612 33.6839 38.1903 34.13C37.9303 34.46 37.6403 34.82 37.3303 35.17Z" fill="#00588C"/>
<path d="M34.6392 37.78C33.2405 37.5714 31.832 37.4345 30.4192 37.37C28.933 37.4769 27.4561 37.6874 25.9992 38C24.4497 38.3189 22.8788 38.5228 21.2992 38.61V38.61C19.7656 38.5258 18.241 38.3219 16.7392 38C15.3411 37.7084 13.9243 37.5146 12.4992 37.42H12.4392C10.9229 37.4862 9.41092 37.6297 7.90922 37.85C7.48922 37.52 7.08922 37.17 6.69922 36.85C8.60379 36.5513 10.5234 36.3577 12.4492 36.27H12.5092C14.0025 36.3612 15.4867 36.5651 16.9492 36.88C18.3676 37.1736 19.8042 37.3707 21.2492 37.47C22.7651 37.3855 24.2726 37.1883 25.7592 36.88C27.2875 36.5554 28.839 36.3514 30.3992 36.27C32.2148 36.357 34.0242 36.5439 35.8192 36.83C35.4259 37.2034 35.0259 37.5534 34.6192 37.88L34.6392 37.78Z" fill="#00588C"/>
<path d="M30.6008 40.3602H30.4008C28.9206 40.467 27.4501 40.6809 26.0008 41.0002C24.4513 41.3191 22.8803 41.523 21.3008 41.6102V41.6102C19.7677 41.521 18.2434 41.3171 16.7408 41.0002C15.3436 40.701 13.9266 40.5038 12.5008 40.4102H11.9408C11.2927 40.1122 10.6618 39.7783 10.0508 39.4102C11.0508 39.3102 11.8508 39.2402 12.4508 39.2402H12.5108C14.004 39.3314 15.4883 39.5353 16.9508 39.8502C18.3674 40.1536 19.8048 40.3508 21.2508 40.4402C22.7667 40.3558 24.2742 40.1585 25.7608 39.8502C27.2908 39.5355 28.8414 39.3316 30.4008 39.2402V39.2402C30.9208 39.2402 31.6508 39.3002 32.4808 39.3802C31.8676 39.7685 31.2333 40.1224 30.5808 40.4402" fill="#00588C"/>
<path d="M38.7697 16.8802H42.0697C41.9797 16.4702 41.8897 16.0802 41.7797 15.6802H38.7797C38.6206 15.6802 38.4679 15.7434 38.3554 15.8559C38.2429 15.9684 38.1797 16.121 38.1797 16.2802C38.1797 16.4393 38.2429 16.5919 38.3554 16.7044C38.4679 16.817 38.6206 16.8802 38.7797 16.8802H38.7697Z" fill="#FEFEFE"/>
<path d="M35.0004 13.9402H41.2204C41.0704 13.5402 40.9104 13.1402 40.7304 12.7402H35.0004C34.8413 12.7402 34.6886 12.8034 34.5761 12.916C34.4636 13.0285 34.4004 13.1811 34.4004 13.3402C34.4004 13.4994 34.4636 13.652 34.5761 13.7645C34.6886 13.877 34.8413 13.9402 35.0004 13.9402V13.9402Z" fill="#FEFEFE"/>
<path fill-rule="evenodd" clip-rule="evenodd" d="M34.8101 29.6002L36.8101 31.9001C34.6548 31.5418 32.4816 31.3014 30.3001 31.1801V31.1801C28.7405 31.2626 27.1894 31.4631 25.6601 31.7801C24.1745 32.0961 22.6666 32.2967 21.1501 32.3801C19.7045 32.2811 18.2676 32.0806 16.8501 31.7801C15.3898 31.4736 13.9093 31.273 12.4201 31.1801H12.3501C11.8201 31.1801 11.0901 31.2301 10.2601 31.3101C9.35144 30.7173 8.66324 29.8418 8.30177 28.8188C7.94029 27.7958 7.92565 26.6823 8.26009 25.6501C8.95009 23.7401 11.2601 21.5301 11.6801 20.1901C11.834 19.879 11.8592 19.5197 11.7501 19.1901C11.6584 19.0166 11.5024 18.8858 11.3154 18.826C11.1285 18.7661 10.9255 18.782 10.7501 18.8702C10.5821 19.0062 10.4471 19.1786 10.3553 19.3743C10.2635 19.57 10.2173 19.784 10.2201 20.0001H8.82009L9.82009 15.1401C10.2959 15.0517 10.7847 15.0602 11.2572 15.165C11.7297 15.2698 12.1763 15.4688 12.5701 15.7501C13.4645 16.8581 13.9891 18.2186 14.0701 19.6401C14.2795 21.8669 15.1938 23.9688 16.6801 25.6401C20.5901 29.0901 29.9401 29.5902 34.8101 29.6002Z" fill="#FEFEFE"/>
<path fill-rule="evenodd" clip-rule="evenodd" d="M21.1992 28.8601H22.1592L21.8192 3.37012H21.5392L21.1992 28.8601Z" fill="#FEFEFE"/>
<path fill-rule="evenodd" clip-rule="evenodd" d="M32.1095 7.66996C19.8895 10.12 20.5995 22.12 29.9995 29C29.2195 28.95 28.4095 28.88 27.5795 28.79C8.52949 19.28 8.30949 1.92996 31.4895 7.04996L32.1095 7.20996V7.66996Z" fill="#FEFEFE"/>
<path fill-rule="evenodd" clip-rule="evenodd" d="M16.9405 4.07023C16.663 3.89866 16.4218 3.67445 16.2305 3.41023C16.8392 3.6175 17.4774 3.72554 18.1205 3.73023C19.2505 3.73023 19.9005 3.24023 21.2005 3.36023C21.0684 4.02257 20.8879 4.67432 20.6605 5.31023C20.0005 4.65023 19.0005 4.74023 18.0805 4.52023C17.679 4.43157 17.2942 4.27968 16.9405 4.07023V4.07023Z" fill="#C83233"/>
<path d="M140.999 32.1298C139.782 32.9841 138.325 33.4289 136.839 33.3998C136.002 33.4066 135.167 33.2989 134.359 33.0798C133.615 32.8776 132.896 32.589 132.219 32.2198L132.109 32.1498L133.789 28.8598L133.909 28.9298C134.333 29.179 134.791 29.3643 135.269 29.4798C135.738 29.5894 136.218 29.6431 136.699 29.6398C137.383 29.6235 138.045 29.4004 138.599 28.9998C139.246 28.5353 139.79 27.9431 140.199 27.2598L130.419 9.48977H135.309L142.469 22.8598L148.779 9.48977H153.499L144.329 27.8698C143.589 29.5434 142.444 31.0072 140.999 32.1298ZM121.159 29.9398C120.049 31.0622 118.724 31.9497 117.264 32.5493C115.804 33.1489 114.238 33.4483 112.659 33.4298C110.742 33.4757 108.836 33.1144 107.069 32.3698C105.517 31.6564 104.126 30.6359 102.979 29.3698L102.899 29.2798L105.699 26.3998L105.799 26.4898C106.686 27.3633 107.697 28.1012 108.799 28.6798C109.948 29.2266 111.207 29.5004 112.479 29.4798C114.28 29.4992 116.023 28.8467 117.369 27.6498C118.715 26.4384 119.611 24.8061 119.909 23.0198H109.519V19.2998H119.899C119.561 17.5634 118.657 15.9879 117.329 14.8198C115.993 13.6607 114.278 13.0311 112.509 13.0498C111.283 13.0423 110.07 13.2945 108.949 13.7898C107.851 14.297 106.839 14.9717 105.949 15.7898L105.849 15.8798L103.359 12.8798L103.449 12.7898C104.546 11.7205 105.809 10.8358 107.189 10.1698C108.843 9.43396 110.639 9.06876 112.449 9.09977C114.042 9.07611 115.624 9.37186 117.101 9.96956C118.578 10.5673 119.921 11.4548 121.049 12.5798C122.174 13.7275 123.063 15.0856 123.663 16.5767C124.264 18.0677 124.565 19.6624 124.549 21.2698C124.593 24.5018 123.36 27.6206 121.119 29.9498L121.159 29.9398ZM85.9091 32.9998H81.7191V9.48977H97.6391V13.4398H85.9991V32.9998H85.9091ZM70.2191 32.2998C68.4939 33.085 66.614 33.4712 64.7191 33.4298C63.1374 33.4493 61.568 33.1504 60.1043 32.5508C58.6406 31.9513 57.3125 31.0633 56.1991 29.9398C53.9478 27.6156 52.7076 24.4952 52.7491 21.2598C52.7303 19.6505 53.0299 18.0534 53.6305 16.5604C54.2312 15.0673 55.1211 13.7077 56.2491 12.5598C57.3842 11.4362 58.7323 10.5505 60.2142 9.9546C61.6961 9.35875 63.282 9.06472 64.8791 9.08977C66.5837 9.03136 68.2819 9.32637 69.867 9.95626C71.452 10.5861 72.8895 11.5373 74.0891 12.7498L74.1791 12.8398L71.3791 16.0598L71.2791 15.9698C70.4147 15.1331 69.4264 14.4349 68.3491 13.8998C67.2573 13.3748 66.0605 13.1047 64.8491 13.1098C63.8401 13.1003 62.8404 13.3017 61.9139 13.7012C60.9874 14.1008 60.1547 14.6895 59.4691 15.4298C58.0376 17.0307 57.2627 19.1126 57.2991 21.2598C57.2727 23.4059 58.0544 25.4834 59.4891 27.0798C60.1707 27.8203 60.9997 28.4101 61.9228 28.8114C62.8458 29.2126 63.8426 29.4165 64.8491 29.4098C66.0983 29.4287 67.3347 29.1547 68.4591 28.6098C69.5619 28.0322 70.5729 27.2942 71.4591 26.4198L71.5591 26.3298L74.3591 29.1698L74.2791 29.2598C73.1269 30.5171 71.7499 31.5482 70.2191 32.2998V32.2998Z" fill="#00588C"/>
</svg>
